<?xml version="1.0" ?><svg height="24px" version="1.1" viewBox="0 0 24 24" width="24px" xmlns="http://www.w3.org/2000/svg" xmlns:sketch="http://www.bohemiancoding.com/sketch/ns" xmlns:xlink="http://www.w3.org/1999/xlink"><title/><desc/><defs/><g fill="none" fill-rule="evenodd" id="miu" stroke="none" stroke-width="1"><g id="Artboard-1" transform="translate(-899.000000, -479.000000)"><g id="slice" transform="translate(215.000000, 119.000000)"/><path d="M902.001204,481 C902.001204,481 901.500001,481 901.5,482 C901.5,483 902.001204,483 902.001204,483 L919.998796,483 C919.998796,483 920.5,483 920.5,482 C920.5,481 919.998796,481 919.998796,481 L902.001204,481 L902.001204,481 Z M902.473755,484 L919.473755,484 L917.473755,502 L904.473755,502 L902.473755,484 Z M909.473755,480 C908.473755,480 908.473755,481 908.473755,481 L913.473755,481 C913.473755,481 913.473755,480 912.473755,480 L909.473755,480 L909.473755,480 Z M907.473755,500 L908.473755,500 L907.473755,483.962891 L906.473755,483.962891 L907.473755,500 Z M914.473755,483.962891 L913.473755,500 L914.473755,500 L915.473755,483.962891 L914.473755,483.962891 L914.473755,483.962891 Z M910.473755,483.962891 L910.473755,500 L911.473755,500 L911.473755,483.962891 L910.473755,483.962891 L910.473755,483.962891 Z" fill="#FFF" id="editor-trash-delete-recycle-bin-glyph"/></g></g></svg>